<svg width="150" height="150" viewBox="0 0 300 300" xmlns="http://www.w3.org/2000/svg">
  <!-- Main window -->
  <rect x="20" y="20" width="260" height="260" rx="20" ry="20" fill="white" stroke="#888" stroke-width="8"/>

  <!-- Header separator lines -->
  <rect x="24" y="70" width="252" height="6" rx="3" fill="#888"/>
  <rect x="24" y="76" width="252" height="2" rx="1" fill="#888"/>

  <!-- Window buttons (keep original colors) -->
  <circle cx="50" cy="45" r="10" fill="#E85D4E"/>
  <circle cx="80" cy="45" r="10" fill="#F5C542"/>
  <circle cx="110" cy="45" r="10" fill="#5FBB5B"/>

  <!-- Window control icons -->
  <line x1="185" y1="45" x2="200" y2="45" stroke="#555" stroke-width="3" stroke-linecap="round"/>
  <rect x="215" y="35" width="20" height="20" rx="2" fill="none" stroke="#555" stroke-width="3"/>
  <line x1="250" y1="35" x2="265" y2="50" stroke="#555" stroke-width="3" stroke-linecap="round"/>
  <line x1="265" y1="35" x2="250" y2="50" stroke="#555" stroke-width="3" stroke-linecap="round"/>

  <!-- Cube Icon -->
  <g transform="translate(45, 110) scale(1.3)">
    <path d="M20 0 L40 10 L20 20 L0 10 Z" fill="none" stroke="#000" stroke-width="2.5"/>
    <path d="M0 10 L0 30 L20 40 L20 20 Z" fill="none" stroke="#000" stroke-width="2.5"/>
    <path d="M20 20 L20 40 L40 30 L40 10 Z" fill="none" stroke="#000" stroke-width="2.5"/>
  </g>

  <!-- Grid of Dots Icon -->
  <g transform="translate(120, 115) scale(1.3)" fill="#000">
    <circle cx="0" cy="0" r="3"/>
    <circle cx="15" cy="0" r="3"/>
    <circle cx="30" cy="0" r="3"/>
    <circle cx="0" cy="15" r="3"/>
    <circle cx="15" cy="15" r="3"/>
    <circle cx="30" cy="15" r="3"/>
    <circle cx="0" cy="30" r="3"/>
    <circle cx="15" cy="30" r="3"/>
    <circle cx="30" cy="30" r="3"/>
  </g>

  <!-- Globe Icon -->
  <g transform="translate(60, 205) scale(1.3)" stroke="#000" stroke-width="2.5" fill="none">
    <circle cx="20" cy="20" r="18"/>
    <ellipse cx="20" cy="20" rx="8" ry="18"/>
    <ellipse cx="20" cy="20" rx="18" ry="8"/>
  </g>

  <!-- Rectangle Icon -->
  <g transform="translate(130, 210) scale(1.3)">
    <rect x="0" y="5" width="40" height="30" rx="3" fill="none" stroke="#000" stroke-width="2.5"/>
  </g>

  <!-- Chart/Graph Icon -->
  <g transform="translate(200, 110) scale(1.3)" stroke="#000" stroke-width="2.5" fill="none" stroke-linecap="round" stroke-linejoin="round">
    <polyline points="0,35 8,25 16,30 24,15 32,20 40,5"/>
    <line x1="0" y1="0" x2="0" y2="40"/>
    <line x1="0" y1="40" x2="40" y2="40"/>
  </g>
</svg>
